<svg xmlns="http://www.w3.org/2000/svg" width="80" height="80" viewBox="0 0 80 80">
    <g fill="none" fill-rule="evenodd">
        <circle cx="40" cy="40" r="40" fill="#FFF"/>
        <path fill="#F7941A" d="M47.862 47.568c-.55 2.225-2.555 3.25-6.009 3.08-1.306-.086-3.702-.554-7.186-1.41L37.017 40c3.805.912 6.156 1.567 7.058 1.968 3.104 1.423 4.37 3.291 3.788 5.6zM49.666 1.28c10.678 2.695 18.85 8.76 24.517 18.181 5.694 9.427 7.21 19.484 4.54 30.184C76.053 60.343 70 68.54 60.57 74.228c-9.462 5.661-19.55 7.158-30.256 4.49-10.679-2.698-18.852-8.758-24.517-18.18-5.667-9.423-7.179-19.484-4.54-30.184 2.67-10.67 8.721-18.866 18.152-24.582 9.493-5.661 19.577-7.158 30.256-4.49zm-1.802 32.843c-.499 2.229-2.099 3.297-4.81 3.204-.885-.03-2.792-.463-5.72-1.292l2.03-9.37c2.877.8 4.726 1.435 5.556 1.913 2.487 1.336 3.466 3.188 2.944 5.545zm1.217-17.716l-4.257-1.115-1.694 7.04-3.435-.846 1.694-7.04-4.257-1.114-1.782 7.263-8.601-2.274-1.13 4.725c2.114.473 3.143.741 3.085.8 1.392.356 2.054 1.205 2 2.542l-2 8.203.435.177-.435-.132-2.78 11.496c-.377.95-1.042 1.305-2 1.068.028.028-1.014-.24-3.129-.8l-2.128 4.992 8.645 2.27-1.782 7.308 4.257 1.024 1.782-7.176L35 55.71l-1.782 7.221L37.475 64l1.782-7.262c4.057.772 7.213.8 9.47.09 2.665-.832 4.549-2.837 5.649-6.016 1.622-4.874.305-8.422-3.955-10.65 3.13-.714 4.953-2.869 5.475-6.462.377-2.496-.274-4.588-1.955-6.284-1.391-1.459-3.591-2.72-6.605-3.788l1.745-7.22z"/>
    </g>
</svg>
