<svg xmlns="http://www.w3.org/2000/svg" width="118" height="40" viewBox="0 0 118 40">
    <path fill="#865EFC" fill-rule="nonzero" d="M19.89 33.683c2.722 0 5.03-.68 6.924-2.042 1.894-1.36 3.19-3.255 3.89-5.682l6.455.496.22.442c-1.03 4.046-3.08 7.218-6.151 9.517-3.072 2.299-6.833 3.448-11.283 3.448-3.568 0-6.842-.828-9.82-2.483-2.98-1.655-5.343-3.99-7.09-7.007C1.286 27.356.413 23.9.413 20s.873-7.356 2.62-10.372c1.748-3.017 4.11-5.352 7.09-7.007C13.104.966 16.377.138 19.944.138c3.09 0 5.858.542 8.304 1.628 2.446 1.085 4.45 2.611 6.014 4.579 1.563 1.968 2.62 4.22 3.172 6.758l-.275.442-6.456.496c-.662-2.427-1.949-4.321-3.862-5.682-1.912-1.361-4.266-2.042-7.062-2.042-2.5 0-4.69.58-6.565 1.738-1.876 1.159-3.32 2.777-4.331 4.855C7.87 14.99 7.366 17.352 7.366 20c0 2.648.514 5.011 1.544 7.09 1.03 2.078 2.492 3.696 4.387 4.855 1.894 1.158 4.091 1.738 6.593 1.738zm28.415 6.18c-2.501 0-4.589-.746-6.262-2.235-1.674-1.49-2.51-3.485-2.51-5.987 0-2.538.873-4.551 2.62-6.041 1.747-1.49 4.055-2.382 6.924-2.676l8-.827v-1.49c0-1.435-.469-2.529-1.407-3.283-.937-.754-2.234-1.13-3.89-1.13-1.397 0-2.555.349-3.475 1.047-.92.7-1.508 1.73-1.766 3.09l-5.462-.276-.275-.22c.514-2.796 1.802-4.938 3.862-6.428 2.06-1.49 4.505-2.235 7.338-2.235 3.347 0 6.05.837 8.11 2.51 2.06 1.674 3.09 3.964 3.09 6.87v11.31c0 .883.193 1.563.579 2.041.386.479.929.718 1.627.718.331 0 .736-.055 1.214-.166l.166.11v4.525a10.919 10.919 0 0 1-3.476.551c-1.324 0-2.501-.312-3.531-.938-1.03-.625-1.784-1.655-2.262-3.09h-.22c-2.612 2.833-5.61 4.25-8.994 4.25zm1.159-5.132c2.648 0 5.186-1.398 7.613-4.193V26.51l-7.172.828c-1.398.184-2.474.634-3.228 1.352-.754.717-1.13 1.59-1.13 2.62 0 1.104.367 1.95 1.103 2.538.735.589 1.673.883 2.814.883zm33.38-14.565c-.257-1.361-.846-2.4-1.765-3.118-.92-.717-2.06-1.076-3.42-1.076-1.067 0-1.987.221-2.76.662-.772.442-1.158 1.086-1.158 1.932 0 .882.533 1.618 1.6 2.206 1.067.589 2.924 1.251 5.572 1.987 2.943.772 5.113 1.784 6.51 3.034 1.398 1.25 2.097 2.924 2.097 5.02 0 1.693-.45 3.228-1.351 4.608-.902 1.379-2.161 2.464-3.78 3.255-1.618.79-3.494 1.186-5.627 1.186-3.274 0-5.922-.763-7.945-2.29-2.023-1.526-3.274-3.65-3.752-6.372l.11-.331 5.242-.883c.368 1.508 1.048 2.667 2.041 3.476.993.81 2.446 1.214 4.359 1.214 1.36 0 2.492-.294 3.393-.883.901-.588 1.352-1.398 1.352-2.427 0-1.03-.515-1.849-1.545-2.456-1.03-.607-2.85-1.241-5.462-1.903-2.832-.699-4.947-1.701-6.345-3.007-1.398-1.306-2.097-3.025-2.097-5.159 0-1.397.405-2.685 1.214-3.862.81-1.177 1.95-2.105 3.42-2.786 1.472-.68 3.146-1.02 5.022-1.02 2.942 0 5.342.69 7.2 2.068 1.857 1.38 2.97 3.357 3.338 5.931l-.166.276-5.297.718zm16.609 19.696c-2.501 0-4.589-.745-6.262-2.234-1.674-1.49-2.51-3.485-2.51-5.987 0-2.538.873-4.551 2.62-6.041 1.747-1.49 4.055-2.382 6.924-2.676l8-.827v-1.49c0-1.435-.469-2.529-1.407-3.283-.938-.754-2.234-1.13-3.89-1.13-1.397 0-2.556.349-3.475 1.047-.92.7-1.508 1.73-1.766 3.09l-5.462-.276-.276-.22c.515-2.796 1.803-4.938 3.862-6.428 2.06-1.49 4.506-2.235 7.338-2.235 3.348 0 6.051.837 8.11 2.51 2.06 1.674 3.09 3.964 3.09 6.87v11.31c0 .883.194 1.563.58 2.041.386.479.928.718 1.627.718.331 0 .736-.055 1.214-.166l.166.11v4.525a10.919 10.919 0 0 1-3.476.551c-1.324 0-2.501-.312-3.531-.938-1.03-.625-1.784-1.655-2.262-3.09h-.221c-2.612 2.833-5.61 4.25-8.993 4.25zm1.158-5.131c2.649 0 5.187-1.398 7.614-4.193V26.51l-7.172.828c-1.398.184-2.474.634-3.228 1.352-.754.717-1.13 1.59-1.13 2.62 0 1.104.367 1.95 1.103 2.538.735.589 1.673.883 2.813.883z"/>
</svg>
