<?xml version="1.0" encoding="UTF-8"?>
<svg width="30px" height="30px" viewBox="0 0 30 30" version="1.1" xmlns="http://www.w3.org/2000/svg" xmlns:xlink="http://www.w3.org/1999/xlink">
    <!-- Generator: Sketch 51.2 (57519) - http://www.bohemiancoding.com/sketch -->
    <title>casa-c-logo</title>
    <desc>Created with Sketch.</desc>
    <defs></defs>
    <g id="Rev-5" stroke="none" stroke-width="1" fill="none" fill-rule="evenodd">
        <g id="Launcher" transform="translate(-705.000000, -754.000000)" fill="#D7D8D9">
            <path d="M735,764.142541 C734.67197,763.398174 734.246318,762.709593 733.723039,762.07679 C732.809826,760.97244 731.636471,760.112334 730.202939,759.496446 C728.769407,758.880558 727.139453,758.572619 725.313027,758.572619 C723.231752,758.572619 721.315095,759.050456 719.563001,760.006144 C717.810906,760.961832 716.41987,762.305084 715.389851,764.035941 C714.359832,765.766798 713.84483,767.768403 713.84483,770.040816 C713.84483,772.31323 714.359832,774.314835 715.389851,776.045692 C716.41987,777.776549 717.810906,779.119801 719.563001,780.075489 C721.315095,781.031177 723.231752,781.509014 725.313027,781.509014 C727.861528,781.509014 730.027722,780.877208 731.811673,779.613576 C733.19259,778.635426 734.25536,777.329611 735,775.696107 L735,784 L705,784 L705,754 L735,754 L735,764.142541 Z M735,766.387006 L735,773.698538 L730.951558,773.162715 C730.569283,774.436965 729.889693,775.424495 728.912767,776.125332 C727.935842,776.82617 726.746559,777.176584 725.344883,777.176584 C724.00692,777.176584 722.838875,776.873954 721.840712,776.268685 C720.842549,775.663416 720.07801,774.824547 719.547073,773.752053 C719.016135,772.679558 718.75067,771.442492 718.75067,770.040816 C718.75067,768.660378 719.010826,767.428621 719.531144,766.345508 C720.051463,765.262395 720.800074,764.418217 721.777,763.812948 C722.753925,763.207679 723.900734,762.905049 725.217459,762.905049 C726.682847,762.905049 727.914604,763.255463 728.912767,763.956301 C729.91093,764.657138 730.59052,765.644668 730.951558,766.918918 L735,766.387006 Z" id="casa-c-logo"></path>
        </g>
    </g>
</svg>