<?xml version="1.0" encoding="UTF-8"?>
<svg width="21px" height="18px" viewBox="0 0 21 18" version="1.1" xmlns="http://www.w3.org/2000/svg" xmlns:xlink="http://www.w3.org/1999/xlink">
    <!-- Generator: Sketch 53.2 (72643) - https://sketchapp.com -->
    <title>Page 1</title>
    <desc>Created with Sketch.</desc>
    <g id="Large" stroke="none" stroke-width="1" fill="none" fill-rule="evenodd">
        <g id="buy-4-alt" transform="translate(-606.000000, -277.000000)" fill="#fff">
            <path d="M621.834666,277.715812 C621.958543,277.591829 622.104637,277.529412 622.272079,277.529412 C622.439521,277.529412 622.582205,277.590975 622.698382,277.715812 L625.978982,280.999199 C626.09517,281.123182 626.154118,281.2694 626.154118,281.436984 C626.154118,281.604572 626.096025,281.74652 625.978982,281.863649 L613.567379,294.285797 C613.458026,294.402083 613.31193,294.461081 613.129966,294.461081 L613.11886,294.461081 L613.096648,294.472197 C612.936034,294.472197 612.790808,294.410633 612.659235,294.285797 L606.65683,288.288581 C606.532099,288.150063 606.470588,288.000431 606.470588,287.839676 C606.470588,287.672085 606.532099,287.529287 606.65683,287.413011 L609.926276,284.129624 C610.050154,284.013337 610.199659,283.954339 610.3748,283.954339 C610.542248,283.954339 610.688338,284.012481 610.812213,284.129624 L613.108633,286.439158 L621.834666,277.715812 Z" id="Page-1"></path>
        </g>
    </g>
</svg>
