<svg xmlns="http://www.w3.org/2000/svg" width="40" height="40" viewBox="0 0 40 40">
    <g fill="none" fill-rule="evenodd">
        <circle cx="20" cy="20" r="20" fill="#2FB4B5"/>
        <path fill="#FFF" d="M20 30c-5.523 0-10-4.477-10-10s4.477-10 10-10 10 4.477 10 10-4.477 10-10 10zm3.241-14.602l-4.847 4.846-1.276-1.283a.342.342 0 0 0-.243-.097.351.351 0 0 0-.25.097l-1.816 1.824a.312.312 0 0 0-.103.237c0 .09.034.172.103.25l3.335 3.331c.073.07.154.104.243.104l.012-.006h.007a.318.318 0 0 0 .243-.098l6.895-6.901a.322.322 0 0 0 .097-.237.345.345 0 0 0-.097-.243l-1.823-1.824a.311.311 0 0 0-.237-.104.333.333 0 0 0-.243.104z"/>
    </g>
</svg>
