<svg xmlns="http://www.w3.org/2000/svg" width="30" height="30" viewBox="0 0 30 30">
    <path fill="#D7D8D9" fill-rule="evenodd" d="M30 10.143a8.79 8.79 0 0 0-1.277-2.066c-.913-1.105-2.087-1.965-3.52-2.58-1.434-.616-3.064-.924-4.89-.924-2.081 0-3.998.477-5.75 1.433a10.79 10.79 0 0 0-4.173 4.03c-1.03 1.73-1.545 3.732-1.545 6.005 0 2.272.515 4.274 1.545 6.005a10.79 10.79 0 0 0 4.173 4.03c1.752.955 3.669 1.433 5.75 1.433 2.549 0 4.715-.632 6.499-1.895 1.38-.979 2.443-2.284 3.188-3.918V30H0V0h30v10.143zm0 2.244v7.312l-4.048-.536c-.383 1.274-1.062 2.261-2.04 2.962-.976.701-2.165 1.052-3.567 1.052-1.338 0-2.506-.303-3.504-.908a5.979 5.979 0 0 1-2.294-2.517c-.53-1.072-.796-2.31-.796-3.711 0-1.38.26-2.612.78-3.695.52-1.084 1.27-1.928 2.246-2.533.977-.605 2.124-.908 3.44-.908 1.466 0 2.698.35 3.696 1.051.998.701 1.678 1.689 2.039 2.963L30 12.387z"/>
</svg>
