<?xml version="1.0" encoding="UTF-8"?>
<svg width="100px" height="100px" viewBox="0 0 100 100" version="1.1" xmlns="http://www.w3.org/2000/svg" xmlns:xlink="http://www.w3.org/1999/xlink">
    <!-- Generator: Sketch 51.2 (57519) - http://www.bohemiancoding.com/sketch -->
    <title>Group 14</title>
    <desc>Created with Sketch.</desc>
    <defs></defs>
    <g id="Rev-5" stroke="none" stroke-width="1" fill="none" fill-rule="evenodd">
        <g id="Send-LN-Payment-5A" transform="translate(-670.000000, -375.000000)">
            <g id="Group-14" transform="translate(670.000000, 375.000000)">
                <circle id="Oval" fill="#FFFFFF" fill-rule="nonzero" cx="51.5" cy="54.5" r="35.5"></circle>
                <path d="M50,100 C22.3857625,100 0,77.6142375 0,50 C0,22.3857625 22.3857625,0 50,0 C77.6142375,0 100,22.3857625 100,50 C100,77.6142375 77.6142375,100 50,100 Z M66.2074046,26.9883662 L41.968425,51.2198842 L35.5894808,44.8045107 C35.2453823,44.4791149 34.8395782,44.3176087 34.3744438,44.3176087 C33.887943,44.3176087 33.4726494,44.4814923 33.1285449,44.8045107 L24.0467502,53.9250303 C23.7002763,54.2480183 23.5294118,54.6446818 23.5294118,55.1102114 C23.5294118,55.556752 23.7002763,55.9723984 24.0467502,56.3571688 L40.720096,73.0161018 C41.0855791,73.36287 41.4889836,73.5338798 41.935133,73.5338798 L41.9968326,73.5030038 L42.0276824,73.5030038 C42.5331378,73.5030038 42.9389601,73.3391202 43.2427194,73.0161018 L77.7193941,38.5101361 C78.0445137,38.1847768 78.2058828,37.7904785 78.2058828,37.324955 C78.2058828,36.8594437 78.0421383,36.4532827 77.7193941,36.1088858 L68.6066167,26.9883662 C68.2839028,26.641598 67.8875578,26.4705882 67.4224416,26.4705882 C66.9573254,26.4705882 66.5515092,26.6439693 66.2074046,26.9883662 Z" id="Combined-Shape" fill="#2DCCCD"></path>
            </g>
        </g>
    </g>
</svg>