<svg xmlns="http://www.w3.org/2000/svg" width="90" height="40" viewBox="0 0 90 40">
    <path fill="#FFF" fill-rule="evenodd" d="M0 7.948v23.81a7.942 7.942 0 0 0 7.946 7.948h74.108A7.95 7.95 0 0 0 90 31.757V7.948A7.942 7.942 0 0 0 82.054 0H7.946A7.95 7.95 0 0 0 0 7.948zm5.294 0a2.656 2.656 0 0 1 2.652-2.654h74.108a2.648 2.648 0 0 1 2.652 2.654v23.81a2.656 2.656 0 0 1-2.652 2.654H7.946a2.648 2.648 0 0 1-2.652-2.655V7.948zm9.265 15.876a3.97 3.97 0 1 0 0-7.942 3.97 3.97 0 0 0 0 7.942zm11.912 0a3.97 3.97 0 1 0 0-7.942 3.97 3.97 0 0 0 0 7.942zm11.911 0a3.97 3.97 0 1 0 0-7.942 3.97 3.97 0 0 0 0 7.942zm11.912 0a3.97 3.97 0 1 0 0-7.942 3.97 3.97 0 0 0 0 7.942z"/>
</svg>
