<svg xmlns="http://www.w3.org/2000/svg" width="16" height="16" viewBox="0 0 16 16">
    <path fill="#3BCCFC" fill-rule="nonzero" d="M2.343 2.343a8 8 0 1 0 11.315 11.314A8 8 0 0 0 2.343 2.343zm6.065.857c.662 0 1.192.542 1.192 1.2 0 .658-.546 1.2-1.192 1.2A1.214 1.214 0 0 1 7.2 4.384c0-.658.546-1.184 1.208-1.184zm1.183 8.562a.84.84 0 0 1-.163.294c-.424.467-.944.744-1.563.744-.293 0-.57 0-.863-.052-.472-.07-1.074-.692-.993-1.35l.195-1.348c.13-.779.26-1.574.391-2.353 0-.052.016-.103.016-.155 0-.329-.097-.45-.407-.485-.13-.017-.26-.034-.39-.069-.147-.052-.228-.19-.212-.311.016-.139.098-.225.26-.26.082-.017.18-.017.277-.017h2.247c.277 0 .44.138.44.432 0 .243-.033.485-.082.727-.147.9-.31 1.782-.456 2.681-.049.294-.114.588-.146.882-.017.139 0 .294.032.433.05.19.18.294.358.276.147-.017.293-.069.44-.138.114-.052.212-.138.326-.173.195-.07.341.052.293.242z"/>
</svg>
