<svg xmlns="http://www.w3.org/2000/svg" width="80" height="80" viewBox="0 0 80 80">
    <path fill="#FFF" fill-rule="evenodd" d="M80 27.047a23.44 23.44 0 0 0-3.405-5.509c-2.435-2.945-5.564-5.238-9.387-6.88-3.823-1.643-8.17-2.464-13.04-2.464-5.55 0-10.661 1.274-15.333 3.822-4.673 2.549-8.382 6.13-11.129 10.747-2.746 4.615-4.12 9.953-4.12 16.013 0 6.06 1.374 11.397 4.12 16.013 2.747 4.615 6.456 8.197 11.129 10.746 4.672 2.548 9.783 3.822 15.333 3.822 6.796 0 12.573-1.684 17.33-5.054 3.682-2.609 6.516-6.09 8.502-10.447V80H0V0h80v27.047zm0 5.985v19.497l-10.796-1.428c-1.02 3.398-2.831 6.031-5.437 7.9-2.605 1.869-5.776 2.803-9.514 2.803-3.568 0-6.683-.807-9.344-2.42-2.662-1.615-4.701-3.852-6.117-6.712-1.416-2.86-2.124-6.159-2.124-9.896 0-3.682.694-6.966 2.082-9.855 1.387-2.888 3.384-5.14 5.989-6.753 2.605-1.614 5.663-2.421 9.174-2.421 3.908 0 7.193.934 9.854 2.803 2.662 1.869 4.474 4.502 5.437 7.9L80 33.032z"/>
</svg>
