<svg xmlns="http://www.w3.org/2000/svg" width="135" height="15" viewBox="0 0 135 15">
    <g fill="none" fill-rule="evenodd">
        <path fill="#865EFC" d="M7.392 12.667c1.034 0 1.91-.257 2.629-.771.719-.514 1.21-1.23 1.476-2.146l2.45.188.084.166c-.391 1.528-1.17 2.726-2.335 3.594C10.53 14.566 9.103 15 7.413 15c-1.354 0-2.596-.312-3.727-.938a6.967 6.967 0 0 1-2.691-2.645C.332 10.277 0 8.972 0 7.5s.332-2.778.995-3.917A6.967 6.967 0 0 1 3.685.937C4.818.313 6.06 0 7.414 0c1.173 0 2.224.205 3.152.615.928.41 1.69.986 2.283 1.729a6.127 6.127 0 0 1 1.204 2.552l-.105.167-2.45.187c-.251-.917-.74-1.632-1.466-2.146s-1.62-.77-2.68-.77c-.95 0-1.78.218-2.493.656a4.334 4.334 0 0 0-1.643 1.833C2.83 5.608 2.639 6.5 2.639 7.5s.195 1.892.586 2.677A4.38 4.38 0 0 0 4.89 12.01c.719.438 1.553.657 2.502.657zM18.31 15c-.95 0-1.742-.281-2.377-.844-.635-.562-.953-1.316-.953-2.26 0-.959.332-1.719.995-2.281.663-.563 1.539-.9 2.628-1.01l3.036-.313v-.563c0-.542-.178-.955-.534-1.24-.356-.284-.848-.426-1.476-.426-.53 0-.97.131-1.32.395-.348.264-.572.653-.67 1.167l-2.073-.104-.104-.083c.195-1.056.684-1.865 1.466-2.428.781-.562 1.71-.843 2.785-.843 1.27 0 2.296.316 3.078.948.782.632 1.173 1.496 1.173 2.593v4.271c0 .334.073.59.22.771.146.18.352.27.618.27.125 0 .279-.02.46-.062l.063.042v1.708a4.164 4.164 0 0 1-1.32.209 2.54 2.54 0 0 1-1.34-.354c-.39-.237-.676-.625-.858-1.167h-.084C20.731 14.466 19.593 15 18.31 15zm.44-1.938c1.005 0 1.968-.527 2.89-1.583V9.96l-2.723.312c-.53.07-.939.24-1.225.51-.286.271-.43.6-.43.99 0 .417.14.736.42.958.279.222.635.334 1.068.334zm12.8-5.5c-.097-.513-.32-.906-.67-1.177-.348-.27-.781-.406-1.298-.406-.405 0-.754.083-1.047.25-.293.167-.44.41-.44.73 0 .333.203.61.608.833.404.222 1.11.472 2.115.75 1.117.291 1.94.673 2.47 1.146.531.472.797 1.104.797 1.895 0 .64-.171 1.22-.513 1.74-.343.52-.82.93-1.435 1.23C31.522 14.85 30.81 15 30 15c-1.243 0-2.248-.288-3.016-.865-.767-.576-1.242-1.378-1.424-2.406l.042-.125 1.99-.333c.14.57.398 1.007.775 1.312.377.306.928.459 1.654.459.517 0 .946-.111 1.288-.334.342-.222.513-.527.513-.916 0-.39-.196-.698-.586-.927-.391-.23-1.082-.47-2.074-.72-1.075-.263-1.877-.642-2.408-1.135-.53-.493-.796-1.142-.796-1.947 0-.528.154-1.014.461-1.459.307-.444.74-.795 1.298-1.052.559-.257 1.194-.385 1.906-.385 1.117 0 2.028.26 2.733.78.705.522 1.127 1.268 1.267 2.24l-.063.105-2.01.27zM37.986 15c-.95 0-1.742-.281-2.377-.844-.636-.562-.953-1.316-.953-2.26 0-.959.331-1.719.995-2.281.663-.563 1.539-.9 2.628-1.01l3.036-.313v-.563c0-.542-.178-.955-.534-1.24-.356-.284-.848-.426-1.476-.426-.53 0-.97.131-1.32.395-.348.264-.572.653-.67 1.167l-2.073-.104-.104-.083c.195-1.056.684-1.865 1.465-2.428.782-.562 1.71-.843 2.786-.843 1.27 0 2.296.316 3.078.948.782.632 1.173 1.496 1.173 2.593v4.271c0 .334.073.59.22.771.146.18.352.27.617.27.126 0 .28-.02.461-.062L45 13v1.708a4.164 4.164 0 0 1-1.32.209 2.54 2.54 0 0 1-1.34-.354c-.39-.237-.677-.625-.858-1.167h-.084C40.407 14.466 39.269 15 37.985 15zm.44-1.938c1.005 0 1.968-.527 2.89-1.583V9.96l-2.723.312c-.53.07-.939.24-1.225.51-.286.271-.43.6-.43.99 0 .417.14.736.42.958.279.222.635.334 1.067.334z"/>
        <path fill="#0A0626" d="M49.355 10.21c.057.85.358 1.523.902 2.018.545.495 1.242.743 2.09.743.722 0 1.316-.164 1.783-.492.467-.328.8-.777.997-1.35l2.101.126.085.105c-.354 1.171-.958 2.071-1.814 2.699-.856.627-1.92.941-3.194.941-1.047 0-1.973-.227-2.78-.68a4.67 4.67 0 0 1-1.867-1.914C47.219 11.583 47 10.635 47 9.56c0-1.06.244-2.002.732-2.825a5.263 5.263 0 0 1 4.573-2.615c1.004 0 1.896.213 2.674.638a4.504 4.504 0 0 1 1.825 1.852c.438.809.658 1.764.658 2.866v.732h-8.107zm5.836-1.737c-.07-.753-.375-1.343-.912-1.768-.538-.425-1.196-.638-1.974-.638-.736 0-1.369.213-1.9.638-.53.425-.866 1.015-1.007 1.768h5.793zm8.891.586l3.693 5.732h-2.717l-2.398-3.85-2.419 3.85h-2.716l3.714-5.732-3.29-4.728h2.76l1.951 2.928 1.953-2.928h2.758l-3.289 4.728zm8.191-4.728h2.377v1.882h-2.377v5.67c0 .349.103.617.308.805.205.189.506.283.902.283.325 0 .658-.042.997-.126l.064.042v1.904c-.58.14-1.174.209-1.783.209-.905 0-1.62-.248-2.143-.743-.523-.495-.785-1.217-.785-2.165V6.213h-1.974V4.331h1.974V1.255h.19l2.25.774v2.302zm5.517 5.878c.057.851.358 1.524.902 2.019.545.495 1.242.743 2.09.743.722 0 1.316-.164 1.783-.492.467-.328.8-.777.997-1.35l2.101.126.085.105c-.354 1.171-.958 2.071-1.814 2.699-.856.627-1.92.941-3.194.941-1.047 0-1.973-.227-2.78-.68a4.67 4.67 0 0 1-1.867-1.914c-.439-.823-.658-1.771-.658-2.845 0-1.06.244-2.002.732-2.825a5.263 5.263 0 0 1 4.573-2.615c1.004 0 1.896.213 2.674.638a4.504 4.504 0 0 1 1.825 1.852c.438.809.658 1.764.658 2.866v.732H77.79zm5.836-1.736c-.07-.753-.375-1.343-.912-1.768-.538-.425-1.196-.638-1.974-.638-.736 0-1.369.213-1.9.638-.53.425-.866 1.015-1.007 1.768h5.793zm6.239-2.783c.438-.446.972-.819 1.602-1.119.63-.3 1.305-.45 2.026-.45 1.132 0 2.013.318 2.642.952.63.635.945 1.475.945 2.521v7.197h-2.42V8.2c0-.642-.166-1.133-.498-1.475-.333-.342-.817-.513-1.454-.513-.537 0-1.057.164-1.56.492a4.59 4.59 0 0 0-1.283 1.266v6.82h-2.42V4.33h2.42v1.36zm14.663 1.841c-.1-.516-.326-.91-.68-1.182-.353-.272-.791-.408-1.315-.408-.41 0-.764.084-1.06.251-.298.168-.446.412-.446.733 0 .334.205.613.615.837.41.223 1.125.474 2.143.753 1.132.293 1.967.676 2.504 1.15.538.474.806 1.11.806 1.904 0 .642-.173 1.224-.52 1.747-.346.523-.83.934-1.453 1.234-.622.3-1.344.45-2.164.45-1.26 0-2.278-.29-3.056-.868-.778-.579-1.26-1.384-1.443-2.417l.042-.125 2.016-.335c.142.572.403 1.011.785 1.318.382.307.941.46 1.677.46.523 0 .958-.111 1.305-.334.346-.223.52-.53.52-.92 0-.391-.198-.702-.594-.932-.397-.23-1.097-.47-2.101-.721-1.09-.265-1.903-.646-2.44-1.14-.538-.496-.807-1.148-.807-1.957 0-.53.156-1.018.467-1.464.311-.446.75-.799 1.316-1.057.565-.258 1.21-.387 1.93-.387 1.132 0 2.055.262 2.77.785.714.523 1.142 1.273 1.284 2.249l-.064.104-2.037.272zM109.599 0c.41 0 .764.146 1.061.44.298.292.446.64.446 1.045 0 .405-.148.753-.446 1.046a1.46 1.46 0 0 1-1.06.44c-.41 0-.76-.147-1.05-.44a1.435 1.435 0 0 1-.436-1.046c0-.404.145-.753.435-1.046.29-.293.64-.439 1.05-.439zm1.231 14.79h-2.44V4.33h2.44v10.46zm7.13-10.669c1.09 0 2.062.237 2.918.712a5.11 5.11 0 0 1 1.995 1.945c.474.823.71 1.75.71 2.783 0 1.032-.236 1.96-.71 2.782a5.11 5.11 0 0 1-1.995 1.946c-.856.474-1.828.711-2.918.711s-2.058-.237-2.907-.711a5.129 5.129 0 0 1-1.984-1.946c-.474-.823-.71-1.75-.71-2.782s.236-1.96.71-2.783a5.129 5.129 0 0 1 1.984-1.945c.849-.475 1.818-.712 2.907-.712zm0 2.113c-.933 0-1.697.297-2.292.89-.594.592-.89 1.405-.89 2.437 0 1.032.296 1.844.89 2.437.595.593 1.359.889 2.292.889.948 0 1.719-.296 2.313-.89.594-.592.891-1.404.891-2.436 0-1.046-.297-1.862-.89-2.448-.595-.586-1.366-.879-2.314-.879zm9.825-.544c.439-.446.973-.819 1.602-1.119.63-.3 1.305-.45 2.027-.45 1.132 0 2.012.318 2.642.952.63.635.944 1.475.944 2.521v7.197h-2.42V8.2c0-.642-.165-1.133-.498-1.475-.332-.342-.817-.513-1.453-.513-.538 0-1.058.164-1.56.492a4.59 4.59 0 0 0-1.284 1.266v6.82h-2.419V4.33h2.42v1.36z"/>
    </g>
</svg>
