<svg xmlns="http://www.w3.org/2000/svg" width="226" height="50" viewBox="0 0 226 50">
    <g fill="none" fill-rule="evenodd">
        <path fill="#0A0525" d="M129.943 22.912c.947-1.013 2.188-1.878 3.722-2.596a11.302 11.302 0 0 1 4.85-1.078c2.579 0 4.57.718 5.975 2.155 1.404 1.437 2.106 3.412 2.106 5.927v16.898h-4.31V28.103c0-1.632-.433-2.881-1.298-3.747-.866-.865-2.098-1.297-3.698-1.297-1.404 0-2.735.424-3.992 1.273-1.257.849-2.376 1.992-3.355 3.429v16.457h-4.31v-24.49h4.31v3.184zm31.985-3.674c2.449 0 4.628.547 6.539 1.64a11.502 11.502 0 0 1 4.457 4.556c1.061 1.943 1.592 4.122 1.592 6.539 0 2.416-.531 4.596-1.592 6.539a11.502 11.502 0 0 1-4.457 4.555c-1.91 1.094-4.09 1.64-6.54 1.64-2.448 0-4.628-.546-6.538-1.64a11.502 11.502 0 0 1-4.457-4.555c-1.061-1.943-1.592-4.123-1.592-6.54 0-2.416.53-4.595 1.592-6.538a11.502 11.502 0 0 1 4.457-4.555c1.91-1.094 4.09-1.64 6.539-1.64zm0 3.918c-2.416 0-4.4.768-5.951 2.303-1.551 1.534-2.327 3.706-2.327 6.514 0 2.808.776 4.98 2.327 6.514 1.55 1.535 3.535 2.302 5.95 2.302 2.417 0 4.4-.767 5.952-2.302 1.55-1.535 2.326-3.706 2.326-6.514 0-2.808-.775-4.98-2.326-6.514-1.551-1.535-3.535-2.303-5.951-2.303zm37.716 21.062h-4.31v-2.694c-.85.881-1.927 1.632-3.233 2.253-1.306.62-2.825.93-4.555.93-2.025 0-3.894-.522-5.609-1.567-1.714-1.045-3.077-2.53-4.09-4.457-1.012-1.927-1.518-4.163-1.518-6.71 0-2.547.474-4.784 1.42-6.71.948-1.927 2.27-3.413 3.968-4.458 1.698-1.044 3.608-1.567 5.73-1.567 1.568 0 3.046.27 4.433.808 1.388.539 2.539 1.298 3.453 2.278V8.463h4.31v35.755zm-19.005-12.245c0 2.939.71 5.143 2.131 6.612 1.42 1.47 3.24 2.204 5.461 2.204a7.386 7.386 0 0 0 3.551-.882c1.094-.587 1.96-1.37 2.596-2.35a5.73 5.73 0 0 0 .955-3.184V29.67c0-1.143-.326-2.212-.98-3.208a7.342 7.342 0 0 0-2.595-2.4 7.09 7.09 0 0 0-3.527-.907c-2.22 0-4.04.735-5.46 2.205-1.421 1.469-2.132 3.673-2.132 6.612zm26.157 1.371c.065 2.319.792 4.139 2.18 5.461 1.387 1.323 3.208 1.984 5.46 1.984 1.862 0 3.413-.449 4.654-1.347 1.24-.898 2.09-2.098 2.547-3.6h4.016c-.686 2.776-1.992 4.947-3.918 6.514-1.927 1.568-4.376 2.351-7.347 2.351-2.45 0-4.572-.53-6.368-1.591-1.796-1.062-3.175-2.547-4.138-4.457-.964-1.91-1.445-4.14-1.445-6.686 0-2.482.539-4.686 1.616-6.612 1.078-1.927 2.53-3.429 4.36-4.507 1.828-1.077 3.82-1.616 5.975-1.616 2.188 0 4.155.498 5.902 1.494 1.747.996 3.118 2.424 4.114 4.286.996 1.86 1.494 4.081 1.494 6.66v1.666h-19.102zm15.037-3.722c-.164-2.057-.94-3.65-2.327-4.776-1.388-1.126-3.094-1.69-5.118-1.69-1.96 0-3.625.572-4.996 1.715-1.372 1.143-2.22 2.726-2.547 4.75h14.988z"/>
        <path fill="#865EFC" d="M50 17.171a13.534 13.534 0 0 0-1.733-2.681c-1.404-1.698-3.208-3.02-5.413-3.968-2.204-.946-4.71-1.42-7.518-1.42-3.2 0-6.147.735-8.84 2.204-2.695 1.47-4.833 3.535-6.417 6.196-1.584 2.661-2.376 5.739-2.376 9.233 0 3.494.792 6.571 2.376 9.232 1.584 2.662 3.722 4.727 6.416 6.196 2.694 1.47 5.641 2.204 8.841 2.204 3.918 0 7.249-.971 9.992-2.914 1.985-1.406 3.542-3.252 4.672-5.539V50H0V0h50v17.171zm0 3.976v11.181l-5.995-.793c-.587 1.959-1.632 3.477-3.134 4.555-1.502 1.077-3.33 1.616-5.486 1.616-2.057 0-3.853-.465-5.388-1.396-1.534-.93-2.71-2.22-3.526-3.87-.817-1.648-1.225-3.55-1.225-5.705 0-2.123.4-4.017 1.2-5.682.8-1.665 1.951-2.963 3.453-3.894 1.502-.93 3.266-1.396 5.29-1.396 2.253 0 4.147.539 5.682 1.617 1.534 1.077 2.58 2.596 3.134 4.555L50 21.147zM60.577 44.707c-2.22 0-4.074-.66-5.56-1.983-1.485-1.323-2.228-3.094-2.228-5.314 0-2.254.776-4.041 2.327-5.364 1.55-1.322 3.6-2.114 6.147-2.375l7.102-.735v-1.322c0-1.274-.417-2.245-1.25-2.915-.832-.67-1.983-1.004-3.452-1.004-1.241 0-2.27.31-3.086.93-.816.621-1.339 1.536-1.567 2.744l-4.85-.245-.244-.196c.457-2.482 1.6-4.384 3.428-5.706 1.829-1.323 4-1.984 6.515-1.984 2.97 0 5.37.743 7.2 2.229 1.828 1.485 2.742 3.518 2.742 6.098v10.04c0 .784.172 1.388.515 1.813.343.424.824.636 1.445.636.293 0 .653-.049 1.077-.147l.147.098v4.017c-.98.326-2.008.49-3.086.49-1.175 0-2.22-.278-3.134-.833-.915-.555-1.584-1.47-2.009-2.743h-.195c-2.319 2.514-4.98 3.771-7.984 3.771zm1.028-4.555c2.351 0 4.605-1.24 6.76-3.722v-3.576l-6.368.735c-1.24.163-2.196.563-2.865 1.2-.67.637-1.004 1.412-1.004 2.327 0 .98.326 1.73.98 2.253.653.522 1.485.783 2.497.783zm29.94-12.93c-.228-1.208-.75-2.13-1.567-2.768-.816-.636-1.828-.955-3.037-.955-.946 0-1.763.196-2.448.588-.686.392-1.03.963-1.03 1.714 0 .784.474 1.437 1.421 1.96.947.522 2.596 1.11 4.947 1.763 2.613.686 4.54 1.583 5.78 2.694 1.24 1.11 1.861 2.596 1.861 4.457 0 1.502-.4 2.865-1.2 4.09-.8 1.224-1.918 2.187-3.355 2.89-1.437.701-3.102 1.052-4.996 1.052-2.906 0-5.257-.677-7.053-2.032-1.796-1.355-2.906-3.241-3.33-5.657l.097-.294 4.653-.784c.327 1.339.931 2.367 1.813 3.086.881.718 2.171 1.077 3.87 1.077 1.207 0 2.211-.26 3.011-.783.8-.523 1.2-1.241 1.2-2.155 0-.915-.457-1.641-1.371-2.18-.914-.539-2.53-1.102-4.85-1.69-2.513-.62-4.39-1.51-5.632-2.67-1.24-1.158-1.861-2.685-1.861-4.579 0-1.24.36-2.383 1.078-3.428.718-1.045 1.73-1.87 3.036-2.474 1.306-.604 2.792-.906 4.457-.906 2.613 0 4.743.612 6.392 1.837 1.65 1.224 2.637 2.98 2.964 5.265l-.147.245-4.702.637zm15.05 17.485c-2.22 0-4.073-.66-5.558-1.983-1.486-1.323-2.229-3.094-2.229-5.314 0-2.254.776-4.041 2.327-5.364 1.55-1.322 3.6-2.114 6.147-2.375l7.102-.735v-1.322c0-1.274-.417-2.245-1.25-2.915-.832-.67-1.983-1.004-3.452-1.004-1.241 0-2.27.31-3.086.93-.816.621-1.339 1.536-1.567 2.744l-4.85-.245-.244-.196c.457-2.482 1.6-4.384 3.428-5.706 1.829-1.323 4-1.984 6.515-1.984 2.971 0 5.371.743 7.2 2.229 1.828 1.485 2.742 3.518 2.742 6.098v10.04c0 .784.172 1.388.515 1.813.343.424.824.636 1.445.636.293 0 .653-.049 1.077-.147l.147.098v4.017c-.98.326-2.008.49-3.086.49-1.175 0-2.22-.278-3.134-.833-.915-.555-1.584-1.47-2.008-2.743h-.196c-2.319 2.514-4.98 3.771-7.984 3.771zm1.03-4.555c2.35 0 4.604-1.24 6.759-3.722v-3.576l-6.368.735c-1.24.163-2.196.563-2.865 1.2-.67.637-1.004 1.412-1.004 2.327 0 .98.326 1.73.98 2.253.653.522 1.485.783 2.497.783z"/>
    </g>
</svg>
