<?xml version="1.0" encoding="UTF-8"?>
<svg width="19px" height="18px" viewBox="0 0 19 18" version="1.1" xmlns="http://www.w3.org/2000/svg" xmlns:xlink="http://www.w3.org/1999/xlink">
    <!-- Generator: Sketch 51.2 (57519) - http://www.bohemiancoding.com/sketch -->
    <title>Page 1</title>
    <desc>Created with Sketch.</desc>
    <defs></defs>
    <g id="Rev-5" stroke="none" stroke-width="1" fill="none" fill-rule="evenodd">
        <g id="Lightning-Transactions" transform="translate(-1083.000000, -375.000000)" fill="#95939F">
            <g id="Group-9" transform="translate(1083.000000, 374.000000)">
                <g id="Page-1" transform="translate(0.000000, 1.000000)">
                    <path d="M0.2154375,8.3626875 L8.55084375,8.3626875 L8.55084375,0.02728125 L0.2154375,0.02728125 L0.2154375,8.3626875 Z M1.9029375,1.71478125 L6.86334375,1.71478125 L6.86334375,6.6751875 L1.9029375,6.6751875 L1.9029375,1.71478125 Z" id="Fill-1"></path>
                    <polygon id="Fill-2" points="2.7883125 5.7886875 5.9765625 5.7886875 5.9765625 2.6015625 2.7883125 2.6015625"></polygon>
                    <path d="M0.2154375,17.9724375 L8.55084375,17.9724375 L8.55084375,9.63703125 L0.2154375,9.63703125 L0.2154375,17.9724375 Z M1.9029375,11.3245312 L6.86334375,11.3245312 L6.86334375,16.2849375 L1.9029375,16.2849375 L1.9029375,11.3245312 Z" id="Fill-3"></path>
                    <polygon id="Fill-4" points="2.7883125 15.3984375 5.9765625 15.3984375 5.9765625 12.2101875 2.7883125 12.2101875"></polygon>
                    <path d="M10.0119375,0.0275625 L10.0119375,8.36296875 L18.3473438,8.36296875 L18.3473438,0.0275625 L10.0119375,0.0275625 Z M16.6598438,6.67546875 L11.6994375,6.67546875 L11.6994375,1.7150625 L16.6598438,1.7150625 L16.6598438,6.67546875 Z" id="Fill-5"></path>
                    <polygon id="Fill-6" points="12.5859375 5.7886875 15.7730625 5.7886875 15.7730625 2.6015625 12.5859375 2.6015625"></polygon>
                    <polygon id="Fill-7" points="10.0119375 11.4138 15.5390625 11.4138 15.5390625 9.6373125 10.0119375 9.6373125"></polygon>
                    <polygon id="Fill-8" points="10.0119375 17.9724375 11.788425 17.9724375 11.788425 12.2113125 10.0119375 12.2113125"></polygon>
                    <polygon id="Fill-9" points="16.453125 15.09075 14.2734375 15.09075 14.2734375 16.1959781 12.4453125 16.1959781 12.4453125 17.9724656 14.4613125 17.9724656 14.4613125 16.8683344 16.331175 16.8683344 16.331175 17.9724656 18.347175 17.9724656 18.347175 16.1959781 16.453125 16.1959781"></polygon>
                    <polygon id="Fill-10" points="16.5706875 12.1674375 13.3824375 12.1674375 13.3824375 13.943925 18.3470625 13.943925 18.3470625 9.637425 16.570575 9.637425"></polygon>
                </g>
            </g>
        </g>
    </g>
</svg>