<svg xmlns="http://www.w3.org/2000/svg" width="80" height="80" viewBox="0 0 80 80">
    <g fill="none" fill-rule="evenodd">
        <circle cx="40" cy="40" r="40" fill="#EEE"/>
        <path fill="#865EFC" d="M57.12 42.955a2.43 2.43 0 0 1-2.381-2.45 2.428 2.428 0 0 1 .7-1.702 2.35 2.35 0 0 1 .767-.532c.287-.13.598-.204.914-.217a.605.605 0 0 0 .157 0 .91.91 0 0 0 .7-1.075c-.23-1.127-.56-2.23-.991-3.297a20.947 20.947 0 0 0-.728-1.58 14.881 14.881 0 0 0-.882-1.477.823.823 0 0 0-.101-.116.903.903 0 0 0-1.279-.042 2.45 2.45 0 0 1-3.413-.041 2.519 2.519 0 0 1-.732-1.685c0-.626.235-1.23.658-1.694a.564.564 0 0 0 .116-.144.899.899 0 0 0-.258-1.264 17.266 17.266 0 0 0-3.036-1.613 18.232 18.232 0 0 0-3.259-.999A1.024 1.024 0 0 0 43.88 23a.91.91 0 0 0-.924.893 2.405 2.405 0 0 1-.739 1.684 2.448 2.448 0 0 1-1.7.7 2.443 2.443 0 0 1-1.702-.7c-.223-.215-.4-.47-.525-.753a2.352 2.352 0 0 1-.208-.93c-.027-.057-.027-.106-.027-.158a.888.888 0 0 0-1.05-.7 17.251 17.251 0 0 0-4.881 1.715c-.506.266-.997.56-1.47.882-.045.03-.089.064-.13.1a.932.932 0 0 0-.041 1.293c.443.454.684 1.068.669 1.701a2.432 2.432 0 0 1-2.41 2.417 2.377 2.377 0 0 1-1.701-.66.903.903 0 0 0-1.396.144 17.759 17.759 0 0 0-1.629 3.036 18.756 18.756 0 0 0-.987 3.276.892.892 0 0 0 .224.84.89.89 0 0 0 .637.274c.639.019 1.245.29 1.685.752.451.451.704 1.064.7 1.702a2.41 2.41 0 0 1-.7 1.701c-.215.223-.47.401-.753.526a2.332 2.332 0 0 1-.932.22h-.157a.91.91 0 0 0-.7 1.075c.219 1.11.545 2.196.976 3.24a.384.384 0 0 0 0 .057c.224.529.476 1.047.743 1.555.266.507.567.998.889 1.476.027.046.056.09.087.13a.919.919 0 0 0 1.292.03 2.492 2.492 0 0 1 1.715-.67c.639.011 1.246.271 1.695.725a2.41 2.41 0 0 1 .7 1.694 2.384 2.384 0 0 1-.658 1.702.483.483 0 0 0-.101.128.896.896 0 0 0 .258 1.265c.955.64 1.97 1.182 3.036 1.614 1.049.437 2.14.77 3.256.99a.91.91 0 0 0 .844-.212.912.912 0 0 0 .29-.632 2.45 2.45 0 1 1 4.145-1.694c.223.216.402.474.525.76.135.294.205.614.206.938a.613.613 0 0 0 .03.157c.099.482.567.794 1.05.7a17.48 17.48 0 0 0 3.296-1.005 17 17 0 0 0 1.573-.72c.507-.268 1-.562 1.477-.882a.49.49 0 0 0 .13-.101.904.904 0 0 0 .28-.634.905.905 0 0 0-.253-.645 2.451 2.451 0 0 1 .056-3.413 2.453 2.453 0 0 1 1.695-.725 2.513 2.513 0 0 1 1.7.659c.046.041.094.08.144.115a.89.89 0 0 0 1.254-.259 17.497 17.497 0 0 0 2.62-6.301 1.135 1.135 0 0 0 0-.193.9.9 0 0 0-.862-.924zm-16.616 4.4a6.857 6.857 0 0 1-4.856-11.707 6.854 6.854 0 0 1 9.702.003 6.857 6.857 0 0 1 2.006 4.853 6.842 6.842 0 0 1-6.852 6.851z"/>
    </g>
</svg>
